HIERARCHY
ROOT SpineBase
{
  OFFSET 0.000000 0.000000 0.000000
  CHANNELS 6 Xposition Yposition Zposition Zrotation Xrotation Yrotation
  JOINT SpineMid
  {
    OFFSET 0.000000 30.759671 0.000000
    CHANNELS 3 Zrotation Xrotation Yrotation
    JOINT SpineShoulder
    {
      OFFSET -0.171790 22.843305 -0.843767
      CHANNELS 3 Zrotation Xrotation Yrotation
      JOINT Neck
      {
        OFFSET -0.110880 7.549549 -0.636954
        CHANNELS 3 Zrotation Xrotation Yrotation
        JOINT Head
        {
          OFFSET -4.569397 13.064086 1.743014
          CHANNELS 3 Zrotation Xrotation Yrotation
          End Site
          {
            OFFSET 0 0 0
          }
        }
      }
      JOINT ShoulderLeft
      {
        OFFSET -11.547232 -4.545248 10.394979
        CHANNELS 3 Zrotation Xrotation Yrotation
        JOINT ElbowLeft
        {
          OFFSET -2.908525 -26.525623 7.094759
          CHANNELS 3 Zrotation Xrotation Yrotation
          JOINT WristLeft
          {
            OFFSET 0.797119 -25.252480 0.397468
            CHANNELS 3 Zrotation Xrotation Yrotation
            JOINT HandLeft
            {
              OFFSET 0.957864 -7.063935 0.170337
              CHANNELS 3 Zrotation Xrotation Yrotation
              JOINT HandTipLeft
              {
                OFFSET 1.578928 -7.253104 -0.135076
                CHANNELS 3 Zrotation Xrotation Yrotation
                End Site
                {
                  OFFSET 0 0 0
                }
              }
              JOINT ThumbLeft
              {
                OFFSET 2.230073 1.439277 -4.233238
                CHANNELS 3 Zrotation Xrotation Yrotation
                End Site
                {
                  OFFSET 0 0 0
                }
              }
            }
          }
        }
      }
      JOINT ShoulderRight
      {
        OFFSET 10.065355 -4.830376 -11.736247
        CHANNELS 3 Zrotation Xrotation Yrotation
        JOINT ElbowRight
        {
          OFFSET 6.602239 -25.318195 -6.326907
          CHANNELS 3 Zrotation Xrotation Yrotation
          JOINT WristRight
          {
            OFFSET -0.556982 -20.348687 -7.931095
            CHANNELS 3 Zrotation Xrotation Yrotation
            JOINT HandRight
            {
              OFFSET -1.736481 -7.762732 1.140484
              CHANNELS 3 Zrotation Xrotation Yrotation
              JOINT HandTipRight
              {
                OFFSET -0.897508 -7.692444 -0.004974
                CHANNELS 3 Zrotation Xrotation Yrotation
                End Site
                {
                  OFFSET 0 0 0
                }
              }
              JOINT ThumbRight
              {
                OFFSET -4.391875 1.177162 5.582131
                CHANNELS 3 Zrotation Xrotation Yrotation
                End Site
                {
                  OFFSET 0 0 0
                }
              }
            }
          }
        }
      }
    }
  }
  JOINT HipLeft
  {
    OFFSET -4.873781 0.670467 0.208854
    CHANNELS 3 Zrotation Xrotation Yrotation
    JOINT KneeLeft
    {
      OFFSET 4.335730 -41.403163 6.751602
      CHANNELS 3 Zrotation Xrotation Yrotation
      JOINT AnkleLeft
      {
        OFFSET 12.659706 -34.168340 9.660695
        CHANNELS 3 Zrotation Xrotation Yrotation
        JOINT FootLeft
        {
          OFFSET -4.146918 -7.415751 -2.845108
          CHANNELS 3 Zrotation Xrotation Yrotation
          End Site
          {
            OFFSET 0 0 0
          }
        }
      }
    }
  }
  JOINT HipRight
  {
    OFFSET 4.322138 0.524478 -7.697921
    CHANNELS 3 Zrotation Xrotation Yrotation
    JOINT KneeRight
    {
      OFFSET 9.389375 -38.986379 -1.089622
      CHANNELS 3 Zrotation Xrotation Yrotation
      JOINT AnkleRight
      {
        OFFSET 7.565730 -35.393012 6.560962
        CHANNELS 3 Zrotation Xrotation Yrotation
        JOINT FootRight
        {
          OFFSET -3.010324 -7.547582 -4.712588
          CHANNELS 3 Zrotation Xrotation Yrotation
          End Site
          {
            OFFSET 0 0 0
          }
        }
      }
    }
  }
}
MOTION
Frames: 11
Frame Time: 0.033333
6.793580 82.392906 375.193032 9.949603 3.002167 23.300623 0.457505 0.750345 -23.235404 -0.375535 0.550562 0.424463 -3.311715 28.011157 7.706500 0.000000 0.000000 0.000000 -9.107990 31.771562 -5.947890 0.695904 -27.636409 4.425092 20.699412 17.617194 2.334643 -14.147377 -16.361262 -4.331136 0.000000 0.000000 0.000000 0.000000 0.000000 0.000000 -66.566943 -11.189611 4.470742 -101.689122 -43.092371 -47.356072 -4.843021 30.022634 -17.782470 10.182690 -2.842613 -4.222680 0.000000 0.000000 0.000000 0.000000 0.000000 0.000000 -20.004521 -10.266155 -26.394260 -0.933725 27.751805 7.496331 -0.012460 14.024667 -16.044142 0.000000 0.000000 0.000000 -36.780524 19.657336 -15.570111 44.238302 -7.372928 4.053306 -2.542055 3.832006 -11.828813 0.000000 0.000000 0.000000
5.186176 82.388070 376.153726 11.387726 3.686624 22.436030 0.144383 0.765269 -22.436286 -0.478922 0.513960 0.467139 -0.634029 28.222190 6.515712 0.000000 0.000000 0.000000 -13.816745 42.840566 -7.786411 8.314058 -38.606341 10.144148 16.153473 4.607238 2.421064 -10.696685 -1.043837 -0.801283 0.000000 0.000000 0.000000 0.000000 0.000000 0.000000 -69.099781 -11.163379 4.322536 -105.417014 -41.550880 -50.809891 -4.525201 30.200685 -17.709695 4.925760 -5.753711 -3.485038 0.000000 0.000000 0.000000 0.000000 0.000000 0.000000 -14.995768 -10.711991 -23.923441 -10.547968 24.347328 6.589449 1.615311 25.685533 -18.054229 0.000000 0.000000 0.000000 -39.095224 19.205117 -14.844831 39.054259 -8.197295 2.138236 -8.067577 8.174951 -4.403800 0.000000 0.000000 0.000000
3.466193 82.555604 376.934610 11.854821 4.057518 24.824617 0.067238 0.595459 -24.844965 -0.432601 0.523712 0.491435 7.176318 29.444163 3.957729 0.000000 0.000000 0.000000 -19.394473 52.151138 -8.242235 18.880926 -46.435725 18.524341 10.192806 -7.307091 1.338136 -5.141854 13.310371 2.244635 0.000000 0.000000 0.000000 0.000000 0.000000 0.000000 -70.181478 -12.557621 2.863012 -110.053256 -41.780872 -55.306568 -9.029537 39.589937 0.645553 4.755759 -24.081668 -34.393804 0.000000 0.000000 0.000000 0.000000 0.000000 0.000000 -9.576603 -10.038344 -24.629889 -20.460608 20.111303 4.478294 3.404044 33.154734 -16.978797 0.000000 0.000000 0.000000 -37.475697 19.659280 -17.641761 31.256357 -8.618297 -0.171043 -7.206730 10.957659 -0.324714 0.000000 0.000000 0.000000
1.737753 82.715951 377.452309 12.650111 4.419102 28.846071 -0.058436 0.619816 -28.913176 -0.349889 0.592395 0.524049 7.848899 29.247039 3.506240 0.000000 0.000000 0.000000 -21.929841 59.796618 -8.723016 26.952971 -52.928796 25.946161 3.862773 -15.915844 -0.658309 2.217367 37.604664 5.748523 0.000000 0.000000 0.000000 0.000000 0.000000 0.000000 -71.813967 -12.595178 2.636244 -113.693356 -40.174892 -61.802284 -8.037915 34.542124 -4.128996 1.576132 -19.189432 -27.131734 0.000000 0.000000 0.000000 0.000000 0.000000 0.000000 -6.849516 -9.487557 -27.613477 -27.677562 17.383644 2.516608 4.151781 36.650168 -14.642924 0.000000 0.000000 0.000000 -34.624995 20.236861 -22.349103 23.246240 -8.132670 -2.063038 -3.293855 9.283700 2.135124 0.000000 0.000000 0.000000
0.158136 82.721869 377.655972 13.923495 4.982171 30.292605 -0.185102 0.789912 -30.458333 -0.472640 0.564964 0.559242 1.590618 27.245264 4.955009 0.000000 0.000000 0.000000 -20.566699 65.368635 -10.648580 31.383561 -58.496019 30.976528 0.322896 -20.242312 -2.116119 6.245579 32.750774 3.771975 0.000000 0.000000 0.000000 0.000000 0.000000 0.000000 -72.943822 -12.310537 2.443090 -117.022244 -38.494061 -64.235083 -1.296784 28.662569 -19.307178 -2.255452 -16.299750 -19.731720 0.000000 0.000000 0.000000 0.000000 0.000000 0.000000 -6.280152 -9.704441 -28.577087 -32.350571 15.807541 1.131617 6.743099 37.327667 -13.181698 0.000000 0.000000 0.000000 -33.791959 19.539534 -24.592888 17.087176 -6.904111 -3.213308 -9.371332 10.766508 8.672299 0.000000 0.000000 0.000000
-1.155728 82.681042 377.500857 15.279509 5.601327 31.031305 -0.474220 0.980357 -31.323224 -0.585092 0.534444 0.592455 -2.718196 24.635788 5.463646 0.000000 0.000000 0.000000 -15.257975 68.607903 -14.507391 30.991948 -63.072035 32.032493 -0.949001 -21.203704 -2.610834 7.213753 32.916026 3.626367 0.000000 0.000000 0.000000 0.000000 0.000000 0.000000 -72.967447 -11.917806 2.218812 -117.095884 -38.684844 -60.255162 3.068335 17.979358 -40.959754 -7.719294 -12.586144 -3.297847 0.000000 0.000000 0.000000 0.000000 0.000000 0.000000 -8.156719 -9.825773 -29.466982 -32.784154 14.662261 0.432100 9.880019 36.779775 -13.247975 0.000000 0.000000 0.000000 -33.871482 18.926428 -25.907558 13.723287 -6.201785 -3.689054 -10.234297 11.773722 10.421916 0.000000 0.000000 0.000000
-2.088026 82.617979 376.926630 16.340441 6.255358 31.727514 -0.425148 1.070697 -32.146330 -0.557563 0.530477 0.643934 -6.065003 21.963865 5.469789 0.000000 0.000000 0.000000 -6.896383 68.642584 -19.570359 22.431693 -66.206135 25.767721 1.851833 -17.690397 -1.357390 4.641932 29.224501 3.701266 0.000000 0.000000 0.000000 0.000000 0.000000 0.000000 -73.957317 -11.273802 2.228885 -116.828554 -38.043614 -57.539591 4.340799 8.398516 -58.040748 -12.924039 -10.869528 12.193214 0.000000 0.000000 0.000000 0.000000 0.000000 0.000000 -8.957958 -11.005077 -30.048483 -31.663380 13.745230 0.030555 -1.752041 35.368760 -6.491147 0.000000 0.000000 0.000000 -34.095812 18.428554 -27.082325 12.904642 -6.429728 -3.744172 -12.061779 15.028865 11.010359 0.000000 0.000000 0.000000
-3.202082 82.701907 376.688326 17.407799 6.904692 31.758681 -0.411980 1.092801 -32.307406 -0.556117 0.496471 0.696440 -8.699927 18.919860 5.032715 0.000000 0.000000 0.000000 0.195345 69.082779 -24.293329 15.088244 -69.084731 20.230099 1.844355 -17.690002 -1.357995 4.688568 29.219959 3.683532 0.000000 0.000000 0.000000 0.000000 0.000000 0.000000 -75.166764 -8.719381 4.214094 -117.963894 -34.338121 -62.424442 6.488609 1.206724 -67.008026 -16.731055 -13.134942 19.466664 0.000000 0.000000 0.000000 0.000000 0.000000 0.000000 -9.552108 -11.423075 -29.995540 -32.406267 15.262858 0.812764 -1.511815 32.188813 -6.763719 0.000000 0.000000 0.000000 -34.178827 17.643053 -27.665770 12.130785 -6.776588 -3.718121 -13.930539 21.178877 10.666717 0.000000 0.000000 0.000000
-4.132687 82.830748 376.398950 18.035829 7.438685 31.590074 -0.284479 1.107252 -32.246581 -0.496381 0.497124 0.739151 -10.488715 15.064023 4.169695 0.000000 0.000000 0.000000 5.547289 68.448765 -27.329391 6.389599 -70.516110 13.090542 1.840884 -17.689799 -1.358209 4.716534 29.220928 3.673599 0.000000 0.000000 0.000000 0.000000 0.000000 0.000000 -76.648580 -6.591062 5.924237 -119.936080 -30.245661 -67.181484 10.346305 -2.693087 -72.956835 -19.108802 -17.139125 23.106653 0.000000 0.000000 0.000000 0.000000 0.000000 0.000000 -10.142160 -11.710794 -29.862153 -31.353897 15.031851 0.761920 -2.036599 31.959452 -7.217535 0.000000 0.000000 0.000000 -33.956957 16.870779 -27.988002 11.355121 -7.283431 -3.767334 -12.597714 21.130548 9.783804 0.000000 0.000000 0.000000
-4.917759 82.964562 376.222266 18.283586 7.763035 31.265616 -0.209067 0.985363 -31.961323 -0.492456 0.405162 0.769735 -11.766564 12.728338 3.622095 0.000000 0.000000 0.000000 8.886726 68.499117 -29.378711 1.379186 -71.449734 8.933485 1.838073 -17.689282 -1.358500 4.725829 29.214201 3.669009 0.000000 0.000000 0.000000 0.000000 0.000000 0.000000 -77.939629 -4.363951 8.148825 -121.704469 -25.716178 -72.232364 15.432483 -4.176072 -75.592126 -21.460278 -21.672804 27.515928 0.000000 0.000000 0.000000 0.000000 0.000000 0.000000 -9.836010 -12.393702 -29.389405 -31.394440 14.801696 0.617348 -3.942565 32.704699 -6.706341 0.000000 0.000000 0.000000 -33.654646 16.262067 -27.999613 11.245825 -7.897942 -3.743410 -11.743938 19.753522 9.318943 0.000000 0.000000 0.000000
-5.804813 83.126398 376.046639 18.257452 7.917703 31.805735 -0.134510 0.785891 -32.487976 -0.492446 0.323234 0.787134 -12.087681 11.301132 3.188479 0.000000 0.000000 0.000000 10.601206 69.257838 -30.981776 0.844704 -72.373689 8.570206 1.832076 -17.688365 -1.359021 4.755276 29.205643 3.656798 0.000000 0.000000 0.000000 0.000000 0.000000 0.000000 -78.139186 -2.134412 10.382525 -123.991330 -21.393291 -77.072060 19.224698 -2.725473 -74.084967 -21.710352 -24.824278 26.676268 0.000000 0.000000 0.000000 0.000000 0.000000 0.000000 -9.476268 -12.802873 -29.779310 -31.301884 14.663271 0.537693 -5.638451 34.098192 -6.634410 0.000000 0.000000 0.000000 -32.697144 16.005963 -28.768350 10.508647 -8.392468 -3.828256 -12.607053 21.242411 9.638383 0.000000 0.000000 0.000000
